<svg xmlns="http://www.w3.org/2000/svg" width="960" height="1360" viewBox="0 0 960 1360">
  <rect width="960" height="1360" fill="#fdece0"/>
  <rect width="960" height="1360" fill="#143062" opacity="0.15"/><circle cx="80" cy="75.55555555555556" r="28" fill="#ed7126" opacity="0.5"/><circle cx="240" cy="75.55555555555556" r="28" fill="#ed7126" opacity="0.5"/><circle cx="400" cy="75.55555555555556" r="28" fill="#ed7126" opacity="0.5"/><circle cx="560" cy="75.55555555555556" r="28" fill="#ed7126" opacity="0.5"/><circle cx="720" cy="75.55555555555556" r="28" fill="#ed7126" opacity="0.5"/><circle cx="880" cy="75.55555555555556" r="28" fill="#ed7126" opacity="0.5"/><circle cx="160" cy="226.66666666666669" r="28" fill="#ed7126" opacity="0.5"/><circle cx="320" cy="226.66666666666669" r="28" fill="#ed7126" opacity="0.5"/><circle cx="480" cy="226.66666666666669" r="28" fill="#ed7126" opacity="0.5"/><circle cx="640" cy="226.66666666666669" r="28" fill="#ed7126" opacity="0.5"/><circle cx="800" cy="226.66666666666669" r="28" fill="#ed7126" opacity="0.5"/><circle cx="960" cy="226.66666666666669" r="28" fill="#ed7126" opacity="0.5"/><circle cx="80" cy="377.77777777777777" r="28" fill="#ed7126" opacity="0.5"/><circle cx="240" cy="377.77777777777777" r="28" fill="#ed7126" opacity="0.5"/><circle cx="400" cy="377.77777777777777" r="28" fill="#ed7126" opacity="0.5"/><circle cx="560" cy="377.77777777777777" r="28" fill="#ed7126" opacity="0.5"/><circle cx="720" cy="377.77777777777777" r="28" fill="#ed7126" opacity="0.5"/><circle cx="880" cy="377.77777777777777" r="28" fill="#ed7126" opacity="0.5"/><circle cx="160" cy="528.8888888888889" r="28" fill="#ed7126" opacity="0.5"/><circle cx="320" cy="528.8888888888889" r="28" fill="#ed7126" opacity="0.5"/><circle cx="480" cy="528.8888888888889" r="28" fill="#ed7126" opacity="0.5"/><circle cx="640" cy="528.8888888888889" r="28" fill="#ed7126" opacity="0.5"/><circle cx="800" cy="528.8888888888889" r="28" fill="#ed7126" opacity="0.5"/><circle cx="960" cy="528.8888888888889" r="28" fill="#ed7126" opacity="0.5"/><circle cx="80" cy="680" r="28" fill="#ed7126" opacity="0.5"/><circle cx="240" cy="680" r="28" fill="#ed7126" opacity="0.5"/><circle cx="400" cy="680" r="28" fill="#ed7126" opacity="0.5"/><circle cx="560" cy="680" r="28" fill="#ed7126" opacity="0.5"/><circle cx="720" cy="680" r="28" fill="#ed7126" opacity="0.5"/><circle cx="880" cy="680" r="28" fill="#ed7126" opacity="0.5"/><circle cx="160" cy="831.1111111111111" r="28" fill="#ed7126" opacity="0.5"/><circle cx="320" cy="831.1111111111111" r="28" fill="#ed7126" opacity="0.5"/><circle cx="480" cy="831.1111111111111" r="28" fill="#ed7126" opacity="0.5"/><circle cx="640" cy="831.1111111111111" r="28" fill="#ed7126" opacity="0.5"/><circle cx="800" cy="831.1111111111111" r="28" fill="#ed7126" opacity="0.5"/><circle cx="960" cy="831.1111111111111" r="28" fill="#ed7126" opacity="0.5"/><circle cx="80" cy="982.2222222222223" r="28" fill="#ed7126" opacity="0.5"/><circle cx="240" cy="982.2222222222223" r="28" fill="#ed7126" opacity="0.5"/><circle cx="400" cy="982.2222222222223" r="28" fill="#ed7126" opacity="0.5"/><circle cx="560" cy="982.2222222222223" r="28" fill="#ed7126" opacity="0.5"/><circle cx="720" cy="982.2222222222223" r="28" fill="#ed7126" opacity="0.5"/><circle cx="880" cy="982.2222222222223" r="28" fill="#ed7126" opacity="0.5"/><circle cx="160" cy="1133.3333333333333" r="28" fill="#ed7126" opacity="0.5"/><circle cx="320" cy="1133.3333333333333" r="28" fill="#ed7126" opacity="0.5"/><circle cx="480" cy="1133.3333333333333" r="28" fill="#ed7126" opacity="0.5"/><circle cx="640" cy="1133.3333333333333" r="28" fill="#ed7126" opacity="0.5"/><circle cx="800" cy="1133.3333333333333" r="28" fill="#ed7126" opacity="0.5"/><circle cx="960" cy="1133.3333333333333" r="28" fill="#ed7126" opacity="0.5"/><circle cx="80" cy="1284.4444444444446" r="28" fill="#ed7126" opacity="0.5"/><circle cx="240" cy="1284.4444444444446" r="28" fill="#ed7126" opacity="0.5"/><circle cx="400" cy="1284.4444444444446" r="28" fill="#ed7126" opacity="0.5"/><circle cx="560" cy="1284.4444444444446" r="28" fill="#ed7126" opacity="0.5"/><circle cx="720" cy="1284.4444444444446" r="28" fill="#ed7126" opacity="0.5"/><circle cx="880" cy="1284.4444444444446" r="28" fill="#ed7126" opacity="0.5"/>
  <rect x="28" y="28" width="904" height="1304" fill="none" stroke="#ed7126" stroke-width="6" stroke-opacity="0.35"/>
</svg>