<svg xmlns="http://www.w3.org/2000/svg" width="960" height="1360" viewBox="0 0 960 1360">
  <rect width="960" height="1360" fill="#eef4fb"/>
  <circle cx="470.79835390946505" cy="762.6738683127572" r="12.540449245541838" fill="#2d6fa3"/><rect x="425.48148148148147" y="688.6807270233196" width="18.765240054869686" height="18.765240054869686" transform="rotate(53.047839506172835 425.48148148148147 688.6807270233196)" fill="rgb(105,171,223)"/><polygon points="394.3909465020576,359.6498542524006 421.5785408093278,414.025042866941 367.2033521947874,414.025042866941" fill="#143062"/><circle cx="73.5185185185185" cy="678.0294924554183" r="15.171716392318244" fill="#143062"/><rect x="151.65843621399176" y="762.1433470507544" width="33.15139917695473" height="33.15139917695473" transform="rotate(4.5065586419753085 151.65843621399176 762.1433470507544)" fill="#2d6fa3"/><polygon points="901.5555555555555,1306.3881001371742 914.2123799725651,1331.7017489711934 888.8987311385459,1331.7017489711934" fill="#ed7126"/><circle cx="917.4732510288067" cy="257.23285322359396" r="19.223251028806587" fill="#143062"/><rect x="644.9958847736626" y="381.9228395061728" width="21.99764060356653" height="21.99764060356653" transform="rotate(40.1087962962963 644.9958847736626 381.9228395061728)" fill="rgb(105,171,223)"/><polygon points="223.2880658436214,726.720481824417 240.55661008230453,761.2575703017833 206.0195216049383,761.2575703017833" fill="#2d6fa3"/><circle cx="741.9218106995885" cy="478.30864197530866" r="17.70122599451303" fill="#2d6fa3"/><rect x="889.1975308641976" y="324.56241426611797" width="47.121248285322366" height="47.121248285322366" transform="rotate(21.24344135802469 889.1975308641976 324.56241426611797)" fill="#ed7126"/><polygon points="578.8477366255144,519.6655178326474 605.543329903978,573.0567043895747 552.1521433470507,573.0567043895747" fill="#143062"/><circle cx="130.5679012345679" cy="304.4667352537723" r="19.908110425240054" fill="#2d6fa3"/><rect x="45.74485596707819" y="560.6793552812071" width="39.96913580246914" height="39.96913580246914" transform="rotate(85.96604938271605 45.74485596707819 560.6793552812071)" fill="#143062"/><polygon points="311.9382716049382,575.1306155692729 332.84537894375853,616.9448302469135 291.0311642661179,616.9448302469135" fill="#ed7126"/><circle cx="804.8930041152264" cy="612.9910836762688" r="19.66489197530864" fill="#ed7126"/><rect x="227.23045267489712" y="1010.5205761316872" width="20.640068587105624" height="20.640068587105624" transform="rotate(68.9988425925926 227.23045267489712 1010.5205761316872)" fill="#ed7126"/><polygon points="824.0411522633746,1286.5787379972564 854.4318930041153,1347.360219478738 793.6504115226338,1347.360219478738" fill="rgb(105,171,223)"/><circle cx="717.4897119341564" cy="870.7952674897119" r="22.199965706447188" fill="#2d6fa3"/><rect x="310.6913580246914" y="486.1848422496571" width="23.57355281207133" height="23.57355281207133" transform="rotate(61.73070987654321 310.6913580246914 486.1848422496571)" fill="#ed7126"/><polygon points="707.7489711934156,331.69507030178323 738.7905264060356,393.7781807270233 676.7074159807956,393.7781807270233" fill="#2d6fa3"/><circle cx="345.39506172839504" cy="796.644718792867" r="19.704689643347052" fill="#2d6fa3"/><rect x="950.9423868312757" y="620.5116598079561" width="46.705390946502064" height="46.705390946502064" transform="rotate(42.217206790123456 950.9423868312757 620.5116598079561)" fill="#143062"/><polygon points="120.09876543209877,1049.0536865569272 149.81634087791497,1108.4888374485597 90.38118998628258,1108.4888374485597" fill="#ed7126"/><circle cx="23.4238683127572" cy="210.04561042524006" r="25.555606995884773" fill="#143062"/><rect x="633.9094650205761" y="1182.6368312757202" width="24.089903978052128" height="24.089903978052128" transform="rotate(15.180555555555555 633.9094650205761 1182.6368312757202)" fill="rgb(105,171,223)"/><polygon points="35.90534979423868,100.78421639231823 46.36736111111111,121.7082390260631 25.443338477366254,121.7082390260631" fill="#143062"/><circle cx="797.5020576131687" cy="1146.8004115226338" r="13.203335048010974" fill="#ed7126"/><rect x="49.96296296296296" y="380.2146776406036" width="33.18882030178327" height="33.18882030178327" transform="rotate(32.00964506172839 49.96296296296296 380.2146776406036)" fill="#2d6fa3"/><polygon points="221.09465020576133,375.23851165980795 248.48679698216736,430.02280521262 193.7025034293553,430.02280521262" fill="#2d6fa3"/><circle cx="158" cy="1.2301097393689986" r="23.7281207133059" fill="#2d6fa3"/><rect x="387.2510288065844" y="148.30692729766804" width="32.82683127572017" height="32.82683127572017" transform="rotate(0.7600308641975307 387.2510288065844 148.30692729766804)" fill="#ed7126"/><polygon points="726.0370370370371,587.6573131001372 752.291932441701,640.167103909465 699.7821416323732,640.167103909465" fill="#ed7126"/><circle cx="893.0658436213992" cy="975.0631001371742" r="24.062062757201645" fill="#ed7126"/><rect x="345.03292181069963" y="104.93827160493827" width="47.013813443072706" height="47.013813443072706" transform="rotate(6.153935185185186 345.03292181069963 104.93827160493827)" fill="#2d6fa3"/><polygon points="178.880658436214,402.83691700960225 189.52968106995885,424.1349622770919 168.23163580246913,424.1349622770919" fill="#143062"/><circle cx="421.9588477366255" cy="512.9907407407406" r="21.878000685871058" fill="rgb(105,171,223)"/><rect x="507.01234567901236" y="573.3185871056241" width="20.23371742112483" height="20.23371742112483" transform="rotate(59.58024691358025 507.01234567901236 573.3185871056241)" fill="rgb(105,171,223)"/><polygon points="478.8847736625514,1207.7958419067215 503.79880829903976,1257.6239111796983 453.9707390260631,1257.6239111796983" fill="#ed7126"/><circle cx="928.3827160493827" cy="1204.8895747599452" r="19.145070301783264" fill="#ed7126"/>
  <rect x="28" y="28" width="904" height="1304" fill="none" stroke="#2d6fa3" stroke-width="6" stroke-opacity="0.35"/>
</svg>