<svg xmlns="http://www.w3.org/2000/svg" width="960" height="1360" viewBox="0 0 960 1360">
  <rect width="960" height="1360" fill="#f1f6fa"/>
  <ellipse cx="192" cy="340" rx="90" ry="50" transform="rotate(20 192 340)" fill="#143062" opacity="0.85"/><line x1="112" y1="340" x2="272" y2="340" transform="rotate(20 192 340)" stroke="#ed7126" stroke-width="4"/><ellipse cx="480" cy="204" rx="90" ry="50" transform="rotate(-15 480 204)" fill="#143062" opacity="0.85"/><line x1="400" y1="204" x2="560" y2="204" transform="rotate(-15 480 204)" stroke="#ed7126" stroke-width="4"/><ellipse cx="720" cy="408" rx="90" ry="50" transform="rotate(40 720 408)" fill="#143062" opacity="0.85"/><line x1="640" y1="408" x2="800" y2="408" transform="rotate(40 720 408)" stroke="#ed7126" stroke-width="4"/><ellipse cx="288" cy="748.0000000000001" rx="90" ry="50" transform="rotate(-30 288 748.0000000000001)" fill="#143062" opacity="0.85"/><line x1="208" y1="748.0000000000001" x2="368" y2="748.0000000000001" transform="rotate(-30 288 748.0000000000001)" stroke="#ed7126" stroke-width="4"/><ellipse cx="624" cy="816" rx="90" ry="50" transform="rotate(10 624 816)" fill="#143062" opacity="0.85"/><line x1="544" y1="816" x2="704" y2="816" transform="rotate(10 624 816)" stroke="#ed7126" stroke-width="4"/><ellipse cx="480" cy="1156" rx="90" ry="50" transform="rotate(25 480 1156)" fill="#143062" opacity="0.85"/><line x1="400" y1="1156" x2="560" y2="1156" transform="rotate(25 480 1156)" stroke="#ed7126" stroke-width="4"/><ellipse cx="144" cy="1156" rx="90" ry="50" transform="rotate(-20 144 1156)" fill="#143062" opacity="0.85"/><line x1="64" y1="1156" x2="224" y2="1156" transform="rotate(-20 144 1156)" stroke="#ed7126" stroke-width="4"/><ellipse cx="816" cy="1020" rx="90" ry="50" transform="rotate(-10 816 1020)" fill="#143062" opacity="0.85"/><line x1="736" y1="1020" x2="896" y2="1020" transform="rotate(-10 816 1020)" stroke="#ed7126" stroke-width="4"/>
  <rect x="28" y="28" width="904" height="1304" fill="none" stroke="#143062" stroke-width="6" stroke-opacity="0.35"/>
</svg>